<svg height="1678" width="720" xmlns="http://www.w3.org/2000/svg">
<rect height="1678" fill="#555" width="720"></rect>
<text fill="#7f7" font-family="Courier New" font-size="12" xml:space="preserve">
<tspan x="10" y="26">12 megabytes installed</tspan>
<tspan x="10" y="42"></tspan>
<tspan x="10" y="58">node_modules</tspan>
<tspan x="10" y="74">└─┬ hexo-cli@1.0.2 </tspan>
<tspan x="10" y="90">  ├── abbrev@1.1.0 </tspan>
<tspan x="10" y="106">  ├── bluebird@3.5.0 </tspan>
<tspan x="10" y="122">  ├─┬ chalk@1.1.3 </tspan>
<tspan x="10" y="138">  │ ├── ansi-styles@2.2.1 </tspan>
<tspan x="10" y="154">  │ ├── escape-string-regexp@1.0.5 </tspan>
<tspan x="10" y="170">  │ ├─┬ has-ansi@2.0.0 </tspan>
<tspan x="10" y="186">  │ │ └── ansi-regex@2.1.1 </tspan>
<tspan x="10" y="202">  │ ├── strip-ansi@3.0.1 </tspan>
<tspan x="10" y="218">  │ └── supports-color@2.0.0 </tspan>
<tspan x="10" y="234">  ├─┬ hexo-fs@0.1.6 </tspan>
<tspan x="10" y="250">  │ ├─┬ chokidar@1.6.1 </tspan>
<tspan x="10" y="266">  │ │ ├─┬ anymatch@1.3.0 </tspan>
<tspan x="10" y="282">  │ │ │ ├── arrify@1.0.1 </tspan>
<tspan x="10" y="298">  │ │ │ └─┬ micromatch@2.3.11 </tspan>
<tspan x="10" y="314">  │ │ │   ├─┬ arr-diff@2.0.0 </tspan>
<tspan x="10" y="330">  │ │ │   │ └── arr-flatten@1.0.3 </tspan>
<tspan x="10" y="346">  │ │ │   ├── array-unique@0.2.1 </tspan>
<tspan x="10" y="362">  │ │ │   ├─┬ braces@1.8.5 </tspan>
<tspan x="10" y="378">  │ │ │   │ ├─┬ expand-range@1.8.2 </tspan>
<tspan x="10" y="394">  │ │ │   │ │ └─┬ fill-range@2.2.3 </tspan>
<tspan x="10" y="410">  │ │ │   │ │   ├── is-number@2.1.0 </tspan>
<tspan x="10" y="426">  │ │ │   │ │   ├── isobject@2.1.0 </tspan>
<tspan x="10" y="442">  │ │ │   │ │   ├── randomatic@1.1.6 </tspan>
<tspan x="10" y="458">  │ │ │   │ │   └── repeat-string@1.6.1 </tspan>
<tspan x="10" y="474">  │ │ │   │ ├── preserve@0.2.0 </tspan>
<tspan x="10" y="490">  │ │ │   │ └── repeat-element@1.1.2 </tspan>
<tspan x="10" y="506">  │ │ │   ├─┬ expand-brackets@0.1.5 </tspan>
<tspan x="10" y="522">  │ │ │   │ └── is-posix-bracket@0.1.1 </tspan>
<tspan x="10" y="538">  │ │ │   ├── extglob@0.3.2 </tspan>
<tspan x="10" y="554">  │ │ │   ├── filename-regex@2.0.0 </tspan>
<tspan x="10" y="570">  │ │ │   ├─┬ kind-of@3.1.0 </tspan>
<tspan x="10" y="586">  │ │ │   │ └── is-buffer@1.1.5 </tspan>
<tspan x="10" y="602">  │ │ │   ├─┬ normalize-path@2.1.1 </tspan>
<tspan x="10" y="618">  │ │ │   │ └── remove-trailing-separator@1.0.1 </tspan>
<tspan x="10" y="634">  │ │ │   ├─┬ object.omit@2.0.1 </tspan>
<tspan x="10" y="650">  │ │ │   │ ├─┬ for-own@0.1.5 </tspan>
<tspan x="10" y="666">  │ │ │   │ │ └── for-in@1.0.2 </tspan>
<tspan x="10" y="682">  │ │ │   │ └── is-extendable@0.1.1 </tspan>
<tspan x="10" y="698">  │ │ │   ├─┬ parse-glob@3.0.4 </tspan>
<tspan x="10" y="714">  │ │ │   │ ├── glob-base@0.3.0 </tspan>
<tspan x="10" y="730">  │ │ │   │ └── is-dotfile@1.0.2 </tspan>
<tspan x="10" y="746">  │ │ │   └─┬ regex-cache@0.4.3 </tspan>
<tspan x="10" y="762">  │ │ │     ├── is-equal-shallow@0.1.3 </tspan>
<tspan x="10" y="778">  │ │ │     └── is-primitive@2.0.0 </tspan>
<tspan x="10" y="794">  │ │ ├── async-each@1.0.1 </tspan>
<tspan x="10" y="810">  │ │ ├── glob-parent@2.0.0 </tspan>
<tspan x="10" y="826">  │ │ ├── inherits@2.0.3 </tspan>
<tspan x="10" y="842">  │ │ ├─┬ is-binary-path@1.0.1 </tspan>
<tspan x="10" y="858">  │ │ │ └── binary-extensions@1.8.0 </tspan>
<tspan x="10" y="874">  │ │ ├─┬ is-glob@2.0.1 </tspan>
<tspan x="10" y="890">  │ │ │ └── is-extglob@1.0.0 </tspan>
<tspan x="10" y="906">  │ │ ├── path-is-absolute@1.0.1 </tspan>
<tspan x="10" y="922">  │ │ └─┬ readdirp@2.1.0 </tspan>
<tspan x="10" y="938">  │ │   ├─┬ minimatch@3.0.3 </tspan>
<tspan x="10" y="954">  │ │   │ └─┬ brace-expansion@1.1.7 </tspan>
<tspan x="10" y="970">  │ │   │   ├── balanced-match@0.4.2 </tspan>
<tspan x="10" y="986">  │ │   │   └── concat-map@0.0.1 </tspan>
<tspan x="10" y="1002">  │ │   ├─┬ readable-stream@2.2.9 </tspan>
<tspan x="10" y="1018">  │ │   │ ├── buffer-shims@1.0.0 </tspan>
<tspan x="10" y="1034">  │ │   │ ├── core-util-is@1.0.2 </tspan>
<tspan x="10" y="1050">  │ │   │ ├── isarray@1.0.0 </tspan>
<tspan x="10" y="1066">  │ │   │ ├── process-nextick-args@1.0.7 </tspan>
<tspan x="10" y="1082">  │ │   │ ├── string_decoder@1.0.0 </tspan>
<tspan x="10" y="1098">  │ │   │ └── util-deprecate@1.0.2 </tspan>
<tspan x="10" y="1114">  │ │   └── set-immediate-shim@1.0.1 </tspan>
<tspan x="10" y="1130">  │ └── graceful-fs@4.1.11 </tspan>
<tspan x="10" y="1146">  ├─┬ hexo-log@0.1.2 </tspan>
<tspan x="10" y="1162">  │ └─┬ bunyan@1.8.10 </tspan>
<tspan x="10" y="1178">  │   ├─┬ dtrace-provider@0.8.1 </tspan>
<tspan x="10" y="1194">  │   │ └── nan@2.6.2 </tspan>
<tspan x="10" y="1210">  │   ├── moment@2.18.1 </tspan>
<tspan x="10" y="1226">  │   ├─┬ mv@2.1.1 </tspan>
<tspan x="10" y="1242">  │   │ ├─┬ mkdirp@0.5.1 </tspan>
<tspan x="10" y="1258">  │   │ │ └── minimist@0.0.8 </tspan>
<tspan x="10" y="1274">  │   │ ├── ncp@2.0.0 </tspan>
<tspan x="10" y="1290">  │   │ └─┬ rimraf@2.4.5 </tspan>
<tspan x="10" y="1306">  │   │   └─┬ glob@6.0.4 </tspan>
<tspan x="10" y="1322">  │   │     ├─┬ inflight@1.0.6 </tspan>
<tspan x="10" y="1338">  │   │     │ └── wrappy@1.0.2 </tspan>
<tspan x="10" y="1354">  │   │     └── once@1.4.0 </tspan>
<tspan x="10" y="1370">  │   └── safe-json-stringify@1.0.4 </tspan>
<tspan x="10" y="1386">  ├─┬ hexo-util@0.6.0 </tspan>
<tspan x="10" y="1402">  │ ├─┬ camel-case@3.0.0 </tspan>
<tspan x="10" y="1418">  │ │ ├─┬ no-case@2.3.1 </tspan>
<tspan x="10" y="1434">  │ │ │ └── lower-case@1.1.4 </tspan>
<tspan x="10" y="1450">  │ │ └── upper-case@1.1.3 </tspan>
<tspan x="10" y="1466">  │ ├─┬ cross-spawn@4.0.2 </tspan>
<tspan x="10" y="1482">  │ │ ├─┬ lru-cache@4.0.2 </tspan>
<tspan x="10" y="1498">  │ │ │ ├── pseudomap@1.0.2 </tspan>
<tspan x="10" y="1514">  │ │ │ └── yallist@2.1.2 </tspan>
<tspan x="10" y="1530">  │ │ └─┬ which@1.2.14 </tspan>
<tspan x="10" y="1546">  │ │   └── isexe@2.0.0 </tspan>
<tspan x="10" y="1562">  │ ├── highlight.js@9.11.0 </tspan>
<tspan x="10" y="1578">  │ ├── html-entities@1.2.0 </tspan>
<tspan x="10" y="1594">  │ └── striptags@2.2.1 </tspan>
<tspan x="10" y="1610">  ├── minimist@1.2.0 </tspan>
<tspan x="10" y="1626">  ├── object-assign@4.1.1 </tspan>
<tspan x="10" y="1642">  └─┬ tildify@1.2.0 </tspan>
<tspan x="10" y="1658">    └── os-homedir@1.0.2</tspan>
</text>
</svg>
